<svg width="195" height="169" viewBox="0 0 195 169" fill="none" xmlns="http://www.w3.org/2000/svg">
<rect width="195" height="169" fill="white"/>
<path d="M30.9297 158L36.8242 140.551H41.6055L47.5 158H42.9883L41.8984 154.438H36.4141L35.3242 158H30.9297ZM40.9375 151.273L39.1562 145.52L37.375 151.273H40.9375ZM56.2539 154.566V151.824C55.5586 151.895 54.9961 151.957 54.5664 152.012C54.1367 152.059 53.7148 152.156 53.3008 152.305C52.9414 152.43 52.6602 152.621 52.457 152.879C52.2617 153.129 52.1641 153.465 52.1641 153.887C52.1641 154.504 52.3281 154.93 52.6562 155.164C52.9922 155.391 53.4844 155.504 54.1328 155.504C54.4922 155.504 54.8594 155.422 55.2344 155.258C55.6094 155.094 55.9492 154.863 56.2539 154.566ZM56.2539 156.605C55.9727 156.84 55.7188 157.051 55.4922 157.238C55.2734 157.426 54.9766 157.613 54.6016 157.801C54.2344 157.98 53.875 158.117 53.5234 158.211C53.1797 158.305 52.6953 158.352 52.0703 158.352C50.9062 158.352 49.9375 157.961 49.1641 157.18C48.3984 156.398 48.0156 155.414 48.0156 154.227C48.0156 153.25 48.2109 152.461 48.6016 151.859C48.9922 151.258 49.5547 150.781 50.2891 150.43C51.0312 150.07 51.918 149.82 52.9492 149.68C53.9805 149.539 55.0898 149.43 56.2773 149.352V149.281C56.2773 148.555 56.0078 148.055 55.4688 147.781C54.9375 147.5 54.1367 147.359 53.0664 147.359C52.582 147.359 52.0156 147.449 51.3672 147.629C50.7188 147.801 50.0859 148.023 49.4688 148.297H49.1172V145.121C49.5234 145.004 50.1797 144.867 51.0859 144.711C51.9922 144.547 52.9062 144.465 53.8281 144.465C56.0938 144.465 57.7422 144.844 58.7734 145.602C59.8125 146.352 60.332 147.5 60.332 149.047V158H56.2539V156.605ZM76.5391 158H71.6641L68.1016 152.27L67.4688 153.125V158H63.3672V139.766H67.4688V149.984L71.3594 144.84H76.1992L71.5938 150.512L76.5391 158ZM90.0508 158H85.9492V156.547C85.2383 157.141 84.5859 157.594 83.9922 157.906C83.3984 158.211 82.6914 158.363 81.8711 158.363C80.5664 158.363 79.5469 157.953 78.8125 157.133C78.0859 156.305 77.7227 155.062 77.7227 153.406V144.84H81.8477V151.367C81.8477 152.047 81.8633 152.602 81.8945 153.031C81.9336 153.461 82.0195 153.824 82.1523 154.121C82.2773 154.395 82.4688 154.602 82.7266 154.742C82.9922 154.883 83.3594 154.953 83.8281 154.953C84.1172 154.953 84.457 154.883 84.8477 154.742C85.2461 154.602 85.6133 154.41 85.9492 154.168V144.84H90.0508V158ZM113.898 146.059C113.898 146.871 113.77 147.645 113.512 148.379C113.254 149.113 112.883 149.727 112.398 150.219C112.102 150.523 111.773 150.805 111.414 151.062C111.062 151.32 110.672 151.539 110.242 151.719C109.812 151.898 109.344 152.039 108.836 152.141C108.336 152.242 107.773 152.293 107.148 152.293H104.852V158H100.469V140.551H107.242C108.25 140.551 109.117 140.645 109.844 140.832C110.578 141.012 111.242 141.301 111.836 141.699C112.492 142.137 113 142.723 113.359 143.457C113.719 144.184 113.898 145.051 113.898 146.059ZM109.398 146.164C109.398 145.672 109.281 145.25 109.047 144.898C108.812 144.539 108.531 144.293 108.203 144.16C107.789 143.98 107.391 143.879 107.008 143.855C106.633 143.824 106.121 143.809 105.473 143.809H104.852V149.035H105.156C105.57 149.035 105.961 149.031 106.328 149.023C106.695 149.016 107.016 148.988 107.289 148.941C107.523 148.902 107.77 148.828 108.027 148.719C108.293 148.602 108.496 148.473 108.637 148.332C108.934 148.043 109.133 147.742 109.234 147.43C109.344 147.117 109.398 146.695 109.398 146.164ZM123.262 154.566V151.824C122.566 151.895 122.004 151.957 121.574 152.012C121.145 152.059 120.723 152.156 120.309 152.305C119.949 152.43 119.668 152.621 119.465 152.879C119.27 153.129 119.172 153.465 119.172 153.887C119.172 154.504 119.336 154.93 119.664 155.164C120 155.391 120.492 155.504 121.141 155.504C121.5 155.504 121.867 155.422 122.242 155.258C122.617 155.094 122.957 154.863 123.262 154.566ZM123.262 156.605C122.98 156.84 122.727 157.051 122.5 157.238C122.281 157.426 121.984 157.613 121.609 157.801C121.242 157.98 120.883 158.117 120.531 158.211C120.188 158.305 119.703 158.352 119.078 158.352C117.914 158.352 116.945 157.961 116.172 157.18C115.406 156.398 115.023 155.414 115.023 154.227C115.023 153.25 115.219 152.461 115.609 151.859C116 151.258 116.562 150.781 117.297 150.43C118.039 150.07 118.926 149.82 119.957 149.68C120.988 149.539 122.098 149.43 123.285 149.352V149.281C123.285 148.555 123.016 148.055 122.477 147.781C121.945 147.5 121.145 147.359 120.074 147.359C119.59 147.359 119.023 147.449 118.375 147.629C117.727 147.801 117.094 148.023 116.477 148.297H116.125V145.121C116.531 145.004 117.188 144.867 118.094 144.711C119 144.547 119.914 144.465 120.836 144.465C123.102 144.465 124.75 144.844 125.781 145.602C126.82 146.352 127.34 147.5 127.34 149.047V158H123.262V156.605ZM139.211 148.719H138.871C138.715 148.664 138.488 148.625 138.191 148.602C137.895 148.57 137.566 148.555 137.207 148.555C136.777 148.555 136.324 148.617 135.848 148.742C135.379 148.867 134.922 149.016 134.477 149.188V158H130.375V144.84H134.477V146.727C134.664 146.555 134.922 146.34 135.25 146.082C135.586 145.816 135.891 145.605 136.164 145.449C136.461 145.27 136.805 145.117 137.195 144.992C137.594 144.859 137.969 144.793 138.32 144.793C138.453 144.793 138.602 144.797 138.766 144.805C138.93 144.812 139.078 144.824 139.211 144.84V148.719ZM145.82 158.258C144.148 158.258 142.93 157.914 142.164 157.227C141.406 156.539 141.027 155.414 141.027 153.852V147.699H139.457V144.84H141.027V141.078H145.129V144.84H149.078V147.699H145.129V152.363C145.129 152.824 145.133 153.227 145.141 153.57C145.148 153.914 145.211 154.223 145.328 154.496C145.438 154.77 145.629 154.988 145.902 155.152C146.184 155.309 146.59 155.387 147.121 155.387C147.34 155.387 147.625 155.34 147.977 155.246C148.336 155.152 148.586 155.066 148.727 154.988H149.078V157.883C148.633 158 148.16 158.09 147.66 158.152C147.16 158.223 146.547 158.258 145.82 158.258ZM163.047 144.84L156.402 162.828H151.996L153.988 157.684L149.16 144.84H153.473L156.238 153.09L158.828 144.84H163.047Z" fill="black"/>
<path d="M150.333 24.1867L149.693 17.4667L143.293 19.6C132.325 23.4109 120.612 24.5804 109.107 23.0133C97.0168 21.1371 84.6422 22.8044 73.48 27.8133C67.5626 30.3331 62.3693 34.2929 58.3732 39.3323C54.377 44.3718 51.7049 50.3307 50.6 56.6667C49.1674 64.8517 49.8841 73.2684 52.68 81.0933C54.4803 77.0298 56.584 73.1076 58.9733 69.36C64.3931 61.3858 71.9028 55.057 80.68 51.0667C89.1357 47.206 98.3781 45.3795 107.667 45.7333C98.8241 47.0853 90.36 50.2639 82.8133 55.0667C79.1732 57.3539 75.8396 60.096 72.8933 63.2267C70.0755 66.3559 67.591 69.7698 65.48 73.4133C61.5148 81.0294 58.6934 89.1881 57.1067 97.6267C55.3963 106.092 54.468 114.698 54.3333 123.333H65C65.5013 115.588 66.5529 107.889 68.1467 100.293C75.5463 104.289 83.8445 106.327 92.2533 106.213C100.096 106.208 107.858 104.63 115.08 101.573C155.667 84.24 150.333 26.5867 150.333 24.1867Z" fill="#333333"/>
</svg>
