<svg width="195" height="169" viewBox="0 0 195 169" fill="none" xmlns="http://www.w3.org/2000/svg">
<rect width="195" height="169" fill="white"/>
<path d="M87.6667 44.6667C86.3333 43.3333 86.3333 41.0667 86.3333 35.3333C86.3333 25.024 97 16.6667 97 16.6667C97 16.6667 105 25.024 105 35.3333C105 40.4587 105 43.3333 103.667 44.6667" stroke="black" stroke-width="10" stroke-linecap="round" stroke-linejoin="round"/>
<path d="M113 48.6667C116.872 41.4747 124.477 33.48 129 30C113.952 27.1787 102.677 36.0293 97 43.3333M78.3333 51.3333C75.1067 43.552 67.2987 33.8187 62.3333 30C76.7627 27.2933 88.3973 36.1333 94.3333 43.3333L78.3333 51.3333Z" stroke="black" stroke-width="10" stroke-linecap="round" stroke-linejoin="round"/>
<path d="M131.667 78L67.6667 115.333M77.6 52.3307C76.0229 53.7288 74.4888 55.1748 73 56.6667C61.8267 67.84 59.9387 88.304 59.6747 97.4133C59.584 100.48 59.6053 103.605 60.7653 106.445C62.0107 109.493 64.6667 113.749 70.3333 118C81 126 113 126 123.667 118C129.309 113.768 131.965 109.533 133.216 106.485C134.392 103.621 134.416 100.464 134.323 97.368C134.056 88.2347 132.157 67.8213 121 56.6667C119.4 55.0667 117.864 53.6267 116.397 52.3307C105.043 42.2853 88.9547 42.2853 77.5973 52.3307H77.6ZM118.333 54L62.3333 83.3333L118.333 54ZM75.6667 54L131.667 83.3333L75.6667 54ZM126.333 115.333L62.3333 78L126.333 115.333Z" stroke="black" stroke-width="10" stroke-linecap="round" stroke-linejoin="round"/>
<path d="M16.9297 158L22.8242 140.551H27.6055L33.5 158H28.9883L27.8984 154.438H22.4141L21.3242 158H16.9297ZM26.9375 151.273L25.1562 145.52L23.375 151.273H26.9375ZM47.3281 158H43.2031V151.473C43.2031 150.941 43.1797 150.414 43.1328 149.891C43.0938 149.359 43.0156 148.969 42.8984 148.719C42.7578 148.422 42.5547 148.211 42.2891 148.086C42.0234 147.953 41.668 147.887 41.2227 147.887C40.8867 147.887 40.5469 147.949 40.2031 148.074C39.8594 148.199 39.4922 148.398 39.1016 148.672V158H35V144.84H39.1016V146.293C39.7734 145.723 40.4258 145.277 41.0586 144.957C41.6992 144.637 42.4062 144.477 43.1797 144.477C44.5234 144.477 45.5508 144.902 46.2617 145.754C46.9727 146.598 47.3281 147.824 47.3281 149.434V158ZM57.6289 154.566V151.824C56.9336 151.895 56.3711 151.957 55.9414 152.012C55.5117 152.059 55.0898 152.156 54.6758 152.305C54.3164 152.43 54.0352 152.621 53.832 152.879C53.6367 153.129 53.5391 153.465 53.5391 153.887C53.5391 154.504 53.7031 154.93 54.0312 155.164C54.3672 155.391 54.8594 155.504 55.5078 155.504C55.8672 155.504 56.2344 155.422 56.6094 155.258C56.9844 155.094 57.3242 154.863 57.6289 154.566ZM57.6289 156.605C57.3477 156.84 57.0938 157.051 56.8672 157.238C56.6484 157.426 56.3516 157.613 55.9766 157.801C55.6094 157.98 55.25 158.117 54.8984 158.211C54.5547 158.305 54.0703 158.352 53.4453 158.352C52.2812 158.352 51.3125 157.961 50.5391 157.18C49.7734 156.398 49.3906 155.414 49.3906 154.227C49.3906 153.25 49.5859 152.461 49.9766 151.859C50.3672 151.258 50.9297 150.781 51.6641 150.43C52.4062 150.07 53.293 149.82 54.3242 149.68C55.3555 149.539 56.4648 149.43 57.6523 149.352V149.281C57.6523 148.555 57.3828 148.055 56.8438 147.781C56.3125 147.5 55.5117 147.359 54.4414 147.359C53.957 147.359 53.3906 147.449 52.7422 147.629C52.0938 147.801 51.4609 148.023 50.8438 148.297H50.4922V145.121C50.8984 145.004 51.5547 144.867 52.4609 144.711C53.3672 144.547 54.2812 144.465 55.2031 144.465C57.4688 144.465 59.1172 144.844 60.1484 145.602C61.1875 146.352 61.707 147.5 61.707 149.047V158H57.6289V156.605ZM77.0703 158H72.9453V151.473C72.9453 150.941 72.9219 150.414 72.875 149.891C72.8359 149.359 72.7578 148.969 72.6406 148.719C72.5 148.422 72.2969 148.211 72.0312 148.086C71.7656 147.953 71.4102 147.887 70.9648 147.887C70.6289 147.887 70.2891 147.949 69.9453 148.074C69.6016 148.199 69.2344 148.398 68.8438 148.672V158H64.7422V144.84H68.8438V146.293C69.5156 145.723 70.168 145.277 70.8008 144.957C71.4414 144.637 72.1484 144.477 72.9219 144.477C74.2656 144.477 75.293 144.902 76.0039 145.754C76.7148 146.598 77.0703 147.824 77.0703 149.434V158ZM87.3711 154.566V151.824C86.6758 151.895 86.1133 151.957 85.6836 152.012C85.2539 152.059 84.832 152.156 84.418 152.305C84.0586 152.43 83.7773 152.621 83.5742 152.879C83.3789 153.129 83.2812 153.465 83.2812 153.887C83.2812 154.504 83.4453 154.93 83.7734 155.164C84.1094 155.391 84.6016 155.504 85.25 155.504C85.6094 155.504 85.9766 155.422 86.3516 155.258C86.7266 155.094 87.0664 154.863 87.3711 154.566ZM87.3711 156.605C87.0898 156.84 86.8359 157.051 86.6094 157.238C86.3906 157.426 86.0938 157.613 85.7188 157.801C85.3516 157.98 84.9922 158.117 84.6406 158.211C84.2969 158.305 83.8125 158.352 83.1875 158.352C82.0234 158.352 81.0547 157.961 80.2812 157.18C79.5156 156.398 79.1328 155.414 79.1328 154.227C79.1328 153.25 79.3281 152.461 79.7188 151.859C80.1094 151.258 80.6719 150.781 81.4062 150.43C82.1484 150.07 83.0352 149.82 84.0664 149.68C85.0977 149.539 86.207 149.43 87.3945 149.352V149.281C87.3945 148.555 87.125 148.055 86.5859 147.781C86.0547 147.5 85.2539 147.359 84.1836 147.359C83.6992 147.359 83.1328 147.449 82.4844 147.629C81.8359 147.801 81.2031 148.023 80.5859 148.297H80.2344V145.121C80.6406 145.004 81.2969 144.867 82.2031 144.711C83.1094 144.547 84.0234 144.465 84.9453 144.465C87.2109 144.465 88.8594 144.844 89.8906 145.602C90.9297 146.352 91.4492 147.5 91.4492 149.047V158H87.3711V156.605ZM98.4922 158.363C97.5234 158.363 96.6055 158.258 95.7383 158.047C94.8789 157.836 94.168 157.59 93.6055 157.309V153.84H93.9453C94.1406 153.988 94.3633 154.152 94.6133 154.332C94.8633 154.512 95.2109 154.699 95.6562 154.895C96.0391 155.074 96.4688 155.23 96.9453 155.363C97.4297 155.488 97.9531 155.551 98.5156 155.551C99.0938 155.551 99.6016 155.461 100.039 155.281C100.484 155.102 100.707 154.816 100.707 154.426C100.707 154.121 100.605 153.891 100.402 153.734C100.199 153.578 99.8047 153.43 99.2188 153.289C98.9062 153.211 98.5117 153.129 98.0352 153.043C97.5586 152.949 97.1367 152.844 96.7695 152.727C95.7383 152.406 94.9609 151.934 94.4375 151.309C93.9219 150.676 93.6641 149.848 93.6641 148.824C93.6641 148.238 93.7969 147.688 94.0625 147.172C94.3359 146.648 94.7344 146.184 95.2578 145.777C95.7812 145.379 96.4258 145.062 97.1914 144.828C97.9648 144.594 98.8359 144.477 99.8047 144.477C100.727 144.477 101.574 144.57 102.348 144.758C103.121 144.938 103.773 145.156 104.305 145.414V148.742H103.977C103.836 148.633 103.613 148.488 103.309 148.309C103.004 148.121 102.707 147.961 102.418 147.828C102.074 147.672 101.688 147.543 101.258 147.441C100.836 147.34 100.402 147.289 99.957 147.289C99.3633 147.289 98.8594 147.391 98.4453 147.594C98.0391 147.797 97.8359 148.066 97.8359 148.402C97.8359 148.699 97.9375 148.934 98.1406 149.105C98.3438 149.277 98.7852 149.445 99.4648 149.609C99.8164 149.695 100.219 149.781 100.672 149.867C101.133 149.945 101.574 150.055 101.996 150.195C102.941 150.5 103.656 150.949 104.141 151.543C104.633 152.129 104.879 152.91 104.879 153.887C104.879 154.504 104.734 155.094 104.445 155.656C104.156 156.211 103.746 156.68 103.215 157.062C102.652 157.477 101.988 157.797 101.223 158.023C100.465 158.25 99.5547 158.363 98.4922 158.363ZM127.531 146.059C127.531 146.871 127.402 147.645 127.145 148.379C126.887 149.113 126.516 149.727 126.031 150.219C125.734 150.523 125.406 150.805 125.047 151.062C124.695 151.32 124.305 151.539 123.875 151.719C123.445 151.898 122.977 152.039 122.469 152.141C121.969 152.242 121.406 152.293 120.781 152.293H118.484V158H114.102V140.551H120.875C121.883 140.551 122.75 140.645 123.477 140.832C124.211 141.012 124.875 141.301 125.469 141.699C126.125 142.137 126.633 142.723 126.992 143.457C127.352 144.184 127.531 145.051 127.531 146.059ZM123.031 146.164C123.031 145.672 122.914 145.25 122.68 144.898C122.445 144.539 122.164 144.293 121.836 144.16C121.422 143.98 121.023 143.879 120.641 143.855C120.266 143.824 119.754 143.809 119.105 143.809H118.484V149.035H118.789C119.203 149.035 119.594 149.031 119.961 149.023C120.328 149.016 120.648 148.988 120.922 148.941C121.156 148.902 121.402 148.828 121.66 148.719C121.926 148.602 122.129 148.473 122.27 148.332C122.566 148.043 122.766 147.742 122.867 147.43C122.977 147.117 123.031 146.695 123.031 146.164ZM136.895 154.566V151.824C136.199 151.895 135.637 151.957 135.207 152.012C134.777 152.059 134.355 152.156 133.941 152.305C133.582 152.43 133.301 152.621 133.098 152.879C132.902 153.129 132.805 153.465 132.805 153.887C132.805 154.504 132.969 154.93 133.297 155.164C133.633 155.391 134.125 155.504 134.773 155.504C135.133 155.504 135.5 155.422 135.875 155.258C136.25 155.094 136.59 154.863 136.895 154.566ZM136.895 156.605C136.613 156.84 136.359 157.051 136.133 157.238C135.914 157.426 135.617 157.613 135.242 157.801C134.875 157.98 134.516 158.117 134.164 158.211C133.82 158.305 133.336 158.352 132.711 158.352C131.547 158.352 130.578 157.961 129.805 157.18C129.039 156.398 128.656 155.414 128.656 154.227C128.656 153.25 128.852 152.461 129.242 151.859C129.633 151.258 130.195 150.781 130.93 150.43C131.672 150.07 132.559 149.82 133.59 149.68C134.621 149.539 135.73 149.43 136.918 149.352V149.281C136.918 148.555 136.648 148.055 136.109 147.781C135.578 147.5 134.777 147.359 133.707 147.359C133.223 147.359 132.656 147.449 132.008 147.629C131.359 147.801 130.727 148.023 130.109 148.297H129.758V145.121C130.164 145.004 130.82 144.867 131.727 144.711C132.633 144.547 133.547 144.465 134.469 144.465C136.734 144.465 138.383 144.844 139.414 145.602C140.453 146.352 140.973 147.5 140.973 149.047V158H136.895V156.605ZM152.844 148.719H152.504C152.348 148.664 152.121 148.625 151.824 148.602C151.527 148.57 151.199 148.555 150.84 148.555C150.41 148.555 149.957 148.617 149.48 148.742C149.012 148.867 148.555 149.016 148.109 149.188V158H144.008V144.84H148.109V146.727C148.297 146.555 148.555 146.34 148.883 146.082C149.219 145.816 149.523 145.605 149.797 145.449C150.094 145.27 150.438 145.117 150.828 144.992C151.227 144.859 151.602 144.793 151.953 144.793C152.086 144.793 152.234 144.797 152.398 144.805C152.562 144.812 152.711 144.824 152.844 144.84V148.719ZM159.453 158.258C157.781 158.258 156.562 157.914 155.797 157.227C155.039 156.539 154.66 155.414 154.66 153.852V147.699H153.09V144.84H154.66V141.078H158.762V144.84H162.711V147.699H158.762V152.363C158.762 152.824 158.766 153.227 158.773 153.57C158.781 153.914 158.844 154.223 158.961 154.496C159.07 154.77 159.262 154.988 159.535 155.152C159.816 155.309 160.223 155.387 160.754 155.387C160.973 155.387 161.258 155.34 161.609 155.246C161.969 155.152 162.219 155.066 162.359 154.988H162.711V157.883C162.266 158 161.793 158.09 161.293 158.152C160.793 158.223 160.18 158.258 159.453 158.258ZM176.68 144.84L170.035 162.828H165.629L167.621 157.684L162.793 144.84H167.105L169.871 153.09L172.461 144.84H176.68Z" fill="black"/>
</svg>
