<svg width="195" height="169" viewBox="0 0 195 169" fill="none" xmlns="http://www.w3.org/2000/svg">
<rect width="195" height="169" fill="white"/>
<path d="M94.3333 106.1L129.1 71.3333L144 86.2333L109.233 121L94.3333 106.1Z" stroke="black" stroke-width="9.3125" stroke-linecap="round" stroke-linejoin="round"/>
<path d="M124.133 76.3L116.683 39.05L44.6667 21.6667L62.05 93.6833L99.3 101.133L124.133 76.3Z" stroke="black" stroke-width="9.3125" stroke-linecap="round" stroke-linejoin="round"/>
<path d="M44.6667 21.6667L82.3438 59.3438" stroke="black" stroke-width="9.3125" stroke-linecap="round" stroke-linejoin="round"/>
<path d="M89.3667 76.3C94.8527 76.3 99.3 71.8527 99.3 66.3667C99.3 60.8806 94.8527 56.4333 89.3667 56.4333C83.8806 56.4333 79.4333 60.8806 79.4333 66.3667C79.4333 71.8527 83.8806 76.3 89.3667 76.3Z" stroke="black" stroke-width="9.3125" stroke-linecap="round" stroke-linejoin="round"/>
<path d="M22.4883 138.879H15.1641V142.172H21.9023V145.5H15.1641V153H10.8047V135.551H22.4883V138.879ZM37.1484 146.426C37.1484 148.59 36.5547 150.297 35.3672 151.547C34.1875 152.789 32.5156 153.41 30.3516 153.41C28.2031 153.41 26.5312 152.789 25.3359 151.547C24.1484 150.297 23.5547 148.59 23.5547 146.426C23.5547 144.238 24.1484 142.527 25.3359 141.293C26.5312 140.051 28.2031 139.43 30.3516 139.43C32.5078 139.43 34.1797 140.055 35.3672 141.305C36.5547 142.547 37.1484 144.254 37.1484 146.426ZM32.9414 146.449C32.9414 145.668 32.875 145.02 32.7422 144.504C32.6172 143.98 32.4414 143.562 32.2148 143.25C31.9727 142.922 31.6992 142.695 31.3945 142.57C31.0898 142.438 30.7422 142.371 30.3516 142.371C29.9844 142.371 29.6523 142.43 29.3555 142.547C29.0586 142.656 28.7852 142.871 28.5352 143.191C28.3008 143.496 28.1133 143.914 27.9727 144.445C27.832 144.977 27.7617 145.645 27.7617 146.449C27.7617 147.254 27.8281 147.906 27.9609 148.406C28.0938 148.898 28.2656 149.293 28.4766 149.59C28.6953 149.895 28.9688 150.117 29.2969 150.258C29.625 150.398 29.9883 150.469 30.3867 150.469C30.7148 150.469 31.0469 150.398 31.3828 150.258C31.7266 150.117 32 149.906 32.2031 149.625C32.4453 149.289 32.6289 148.887 32.7539 148.418C32.8789 147.941 32.9414 147.285 32.9414 146.449ZM51.5508 153H47.4492V151.547C46.7383 152.141 46.0859 152.594 45.4922 152.906C44.8984 153.211 44.1914 153.363 43.3711 153.363C42.0664 153.363 41.0469 152.953 40.3125 152.133C39.5859 151.305 39.2227 150.062 39.2227 148.406V139.84H43.3477V146.367C43.3477 147.047 43.3633 147.602 43.3945 148.031C43.4336 148.461 43.5195 148.824 43.6523 149.121C43.7773 149.395 43.9688 149.602 44.2266 149.742C44.4922 149.883 44.8594 149.953 45.3281 149.953C45.6172 149.953 45.957 149.883 46.3477 149.742C46.7461 149.602 47.1133 149.41 47.4492 149.168V139.84H51.5508V153ZM67.0312 153H62.9062V146.473C62.9062 145.941 62.8828 145.414 62.8359 144.891C62.7969 144.359 62.7188 143.969 62.6016 143.719C62.4609 143.422 62.2578 143.211 61.9922 143.086C61.7266 142.953 61.3711 142.887 60.9258 142.887C60.5898 142.887 60.25 142.949 59.9062 143.074C59.5625 143.199 59.1953 143.398 58.8047 143.672V153H54.7031V139.84H58.8047V141.293C59.4766 140.723 60.1289 140.277 60.7617 139.957C61.4023 139.637 62.1094 139.477 62.8828 139.477C64.2266 139.477 65.2539 139.902 65.9648 140.754C66.6758 141.598 67.0312 142.824 67.0312 144.434V153ZM75.1172 153.258C73.4453 153.258 72.2266 152.914 71.4609 152.227C70.7031 151.539 70.3242 150.414 70.3242 148.852V142.699H68.7539V139.84H70.3242V136.078H74.4258V139.84H78.375V142.699H74.4258V147.363C74.4258 147.824 74.4297 148.227 74.4375 148.57C74.4453 148.914 74.5078 149.223 74.625 149.496C74.7344 149.77 74.9258 149.988 75.1992 150.152C75.4805 150.309 75.8867 150.387 76.418 150.387C76.6367 150.387 76.9219 150.34 77.2734 150.246C77.6328 150.152 77.8828 150.066 78.0234 149.988H78.375V152.883C77.9297 153 77.457 153.09 76.957 153.152C76.457 153.223 75.8438 153.258 75.1172 153.258ZM87.3164 149.566V146.824C86.6211 146.895 86.0586 146.957 85.6289 147.012C85.1992 147.059 84.7773 147.156 84.3633 147.305C84.0039 147.43 83.7227 147.621 83.5195 147.879C83.3242 148.129 83.2266 148.465 83.2266 148.887C83.2266 149.504 83.3906 149.93 83.7188 150.164C84.0547 150.391 84.5469 150.504 85.1953 150.504C85.5547 150.504 85.9219 150.422 86.2969 150.258C86.6719 150.094 87.0117 149.863 87.3164 149.566ZM87.3164 151.605C87.0352 151.84 86.7812 152.051 86.5547 152.238C86.3359 152.426 86.0391 152.613 85.6641 152.801C85.2969 152.98 84.9375 153.117 84.5859 153.211C84.2422 153.305 83.7578 153.352 83.1328 153.352C81.9688 153.352 81 152.961 80.2266 152.18C79.4609 151.398 79.0781 150.414 79.0781 149.227C79.0781 148.25 79.2734 147.461 79.6641 146.859C80.0547 146.258 80.6172 145.781 81.3516 145.43C82.0938 145.07 82.9805 144.82 84.0117 144.68C85.043 144.539 86.1523 144.43 87.3398 144.352V144.281C87.3398 143.555 87.0703 143.055 86.5312 142.781C86 142.5 85.1992 142.359 84.1289 142.359C83.6445 142.359 83.0781 142.449 82.4297 142.629C81.7812 142.801 81.1484 143.023 80.5312 143.297H80.1797V140.121C80.5859 140.004 81.2422 139.867 82.1484 139.711C83.0547 139.547 83.9688 139.465 84.8906 139.465C87.1562 139.465 88.8047 139.844 89.8359 140.602C90.875 141.352 91.3945 142.5 91.3945 144.047V153H87.3164V151.605ZM98.5312 153H94.4297V139.84H98.5312V153ZM98.6484 137.965H94.3125V134.766H98.6484V137.965ZM114 153H109.875V146.473C109.875 145.941 109.852 145.414 109.805 144.891C109.766 144.359 109.688 143.969 109.57 143.719C109.43 143.422 109.227 143.211 108.961 143.086C108.695 142.953 108.34 142.887 107.895 142.887C107.559 142.887 107.219 142.949 106.875 143.074C106.531 143.199 106.164 143.398 105.773 143.672V153H101.672V139.84H105.773V141.293C106.445 140.723 107.098 140.277 107.73 139.957C108.371 139.637 109.078 139.477 109.852 139.477C111.195 139.477 112.223 139.902 112.934 140.754C113.645 141.598 114 142.824 114 144.434V153ZM137.742 141.059C137.742 141.871 137.613 142.645 137.355 143.379C137.098 144.113 136.727 144.727 136.242 145.219C135.945 145.523 135.617 145.805 135.258 146.062C134.906 146.32 134.516 146.539 134.086 146.719C133.656 146.898 133.188 147.039 132.68 147.141C132.18 147.242 131.617 147.293 130.992 147.293H128.695V153H124.312V135.551H131.086C132.094 135.551 132.961 135.645 133.688 135.832C134.422 136.012 135.086 136.301 135.68 136.699C136.336 137.137 136.844 137.723 137.203 138.457C137.562 139.184 137.742 140.051 137.742 141.059ZM133.242 141.164C133.242 140.672 133.125 140.25 132.891 139.898C132.656 139.539 132.375 139.293 132.047 139.16C131.633 138.98 131.234 138.879 130.852 138.855C130.477 138.824 129.965 138.809 129.316 138.809H128.695V144.035H129C129.414 144.035 129.805 144.031 130.172 144.023C130.539 144.016 130.859 143.988 131.133 143.941C131.367 143.902 131.613 143.828 131.871 143.719C132.137 143.602 132.34 143.473 132.48 143.332C132.777 143.043 132.977 142.742 133.078 142.43C133.188 142.117 133.242 141.695 133.242 141.164ZM147.105 149.566V146.824C146.41 146.895 145.848 146.957 145.418 147.012C144.988 147.059 144.566 147.156 144.152 147.305C143.793 147.43 143.512 147.621 143.309 147.879C143.113 148.129 143.016 148.465 143.016 148.887C143.016 149.504 143.18 149.93 143.508 150.164C143.844 150.391 144.336 150.504 144.984 150.504C145.344 150.504 145.711 150.422 146.086 150.258C146.461 150.094 146.801 149.863 147.105 149.566ZM147.105 151.605C146.824 151.84 146.57 152.051 146.344 152.238C146.125 152.426 145.828 152.613 145.453 152.801C145.086 152.98 144.727 153.117 144.375 153.211C144.031 153.305 143.547 153.352 142.922 153.352C141.758 153.352 140.789 152.961 140.016 152.18C139.25 151.398 138.867 150.414 138.867 149.227C138.867 148.25 139.062 147.461 139.453 146.859C139.844 146.258 140.406 145.781 141.141 145.43C141.883 145.07 142.77 144.82 143.801 144.68C144.832 144.539 145.941 144.43 147.129 144.352V144.281C147.129 143.555 146.859 143.055 146.32 142.781C145.789 142.5 144.988 142.359 143.918 142.359C143.434 142.359 142.867 142.449 142.219 142.629C141.57 142.801 140.938 143.023 140.32 143.297H139.969V140.121C140.375 140.004 141.031 139.867 141.938 139.711C142.844 139.547 143.758 139.465 144.68 139.465C146.945 139.465 148.594 139.844 149.625 140.602C150.664 141.352 151.184 142.5 151.184 144.047V153H147.105V151.605ZM163.055 143.719H162.715C162.559 143.664 162.332 143.625 162.035 143.602C161.738 143.57 161.41 143.555 161.051 143.555C160.621 143.555 160.168 143.617 159.691 143.742C159.223 143.867 158.766 144.016 158.32 144.188V153H154.219V139.84H158.32V141.727C158.508 141.555 158.766 141.34 159.094 141.082C159.43 140.816 159.734 140.605 160.008 140.449C160.305 140.27 160.648 140.117 161.039 139.992C161.438 139.859 161.812 139.793 162.164 139.793C162.297 139.793 162.445 139.797 162.609 139.805C162.773 139.812 162.922 139.824 163.055 139.84V143.719ZM169.664 153.258C167.992 153.258 166.773 152.914 166.008 152.227C165.25 151.539 164.871 150.414 164.871 148.852V142.699H163.301V139.84H164.871V136.078H168.973V139.84H172.922V142.699H168.973V147.363C168.973 147.824 168.977 148.227 168.984 148.57C168.992 148.914 169.055 149.223 169.172 149.496C169.281 149.77 169.473 149.988 169.746 150.152C170.027 150.309 170.434 150.387 170.965 150.387C171.184 150.387 171.469 150.34 171.82 150.246C172.18 150.152 172.43 150.066 172.57 149.988H172.922V152.883C172.477 153 172.004 153.09 171.504 153.152C171.004 153.223 170.391 153.258 169.664 153.258ZM186.891 139.84L180.246 157.828H175.84L177.832 152.684L173.004 139.84H177.316L180.082 148.09L182.672 139.84H186.891Z" fill="black"/>
</svg>
