<svg width="195" height="169" viewBox="0 0 195 169" fill="none" xmlns="http://www.w3.org/2000/svg">
<rect width="195" height="169" fill="white"/>
<path d="M41.6289 158H37.2695V146.434L34.0938 153.898H31.1055L27.9297 146.434V158H23.8047V140.551H28.8555L32.7227 149.164L36.5781 140.551H41.6289V158ZM57.6484 151.426C57.6484 153.59 57.0547 155.297 55.8672 156.547C54.6875 157.789 53.0156 158.41 50.8516 158.41C48.7031 158.41 47.0312 157.789 45.8359 156.547C44.6484 155.297 44.0547 153.59 44.0547 151.426C44.0547 149.238 44.6484 147.527 45.8359 146.293C47.0312 145.051 48.7031 144.43 50.8516 144.43C53.0078 144.43 54.6797 145.055 55.8672 146.305C57.0547 147.547 57.6484 149.254 57.6484 151.426ZM53.4414 151.449C53.4414 150.668 53.375 150.02 53.2422 149.504C53.1172 148.98 52.9414 148.562 52.7148 148.25C52.4727 147.922 52.1992 147.695 51.8945 147.57C51.5898 147.438 51.2422 147.371 50.8516 147.371C50.4844 147.371 50.1523 147.43 49.8555 147.547C49.5586 147.656 49.2852 147.871 49.0352 148.191C48.8008 148.496 48.6133 148.914 48.4727 149.445C48.332 149.977 48.2617 150.645 48.2617 151.449C48.2617 152.254 48.3281 152.906 48.4609 153.406C48.5938 153.898 48.7656 154.293 48.9766 154.59C49.1953 154.895 49.4688 155.117 49.7969 155.258C50.125 155.398 50.4883 155.469 50.8867 155.469C51.2148 155.469 51.5469 155.398 51.8828 155.258C52.2266 155.117 52.5 154.906 52.7031 154.625C52.9453 154.289 53.1289 153.887 53.2539 153.418C53.3789 152.941 53.4414 152.285 53.4414 151.449ZM68.5352 151.32C68.5352 150.008 68.3359 149.07 67.9375 148.508C67.5391 147.945 66.9258 147.664 66.0977 147.664C65.7305 147.664 65.3633 147.723 64.9961 147.84C64.6367 147.957 64.2812 148.133 63.9297 148.367V154.977C64.2031 155.086 64.4766 155.16 64.75 155.199C65.0312 155.238 65.3086 155.258 65.582 155.258C66.5742 155.258 67.3125 154.93 67.7969 154.273C68.2891 153.617 68.5352 152.633 68.5352 151.32ZM72.7305 151.238C72.7305 153.332 72.1992 155.027 71.1367 156.324C70.0742 157.613 68.7578 158.258 67.1875 158.258C66.5312 158.258 65.9609 158.184 65.4766 158.035C64.9922 157.887 64.4766 157.656 63.9297 157.344L63.7539 158H59.8281V139.766H63.9297V146.211C64.5312 145.695 65.1445 145.277 65.7695 144.957C66.3945 144.637 67.1172 144.477 67.9375 144.477C69.4688 144.477 70.6484 145.074 71.4766 146.27C72.3125 147.465 72.7305 149.121 72.7305 151.238ZM79.0938 158H74.9922V144.84H79.0938V158ZM79.2109 142.965H74.875V139.766H79.2109V142.965ZM86.3359 158H82.2344V139.766H86.3359V158ZM96.2148 158.352C93.7305 158.352 91.8242 157.758 90.4961 156.57C89.1758 155.383 88.5156 153.691 88.5156 151.496C88.5156 149.348 89.1328 147.633 90.3672 146.352C91.6016 145.07 93.3281 144.43 95.5469 144.43C97.5625 144.43 99.0781 144.973 100.094 146.059C101.109 147.145 101.617 148.699 101.617 150.723V152.199H92.6289C92.668 152.809 92.7969 153.32 93.0156 153.734C93.2344 154.141 93.5234 154.465 93.8828 154.707C94.2344 154.949 94.6445 155.125 95.1133 155.234C95.582 155.336 96.0938 155.387 96.6484 155.387C97.125 155.387 97.5938 155.336 98.0547 155.234C98.5156 155.125 98.9375 154.984 99.3203 154.812C99.6562 154.664 99.9648 154.504 100.246 154.332C100.535 154.16 100.77 154.008 100.949 153.875H101.383V157.262C101.047 157.395 100.738 157.52 100.457 157.637C100.184 157.746 99.8047 157.859 99.3203 157.977C98.875 158.094 98.4141 158.184 97.9375 158.246C97.4688 158.316 96.8945 158.352 96.2148 158.352ZM97.5742 149.727C97.5508 148.859 97.3477 148.199 96.9648 147.746C96.5898 147.293 96.0117 147.066 95.2305 147.066C94.4336 147.066 93.8086 147.305 93.3555 147.781C92.9102 148.258 92.6641 148.906 92.6172 149.727H97.5742ZM124.422 146.059C124.422 146.871 124.293 147.645 124.035 148.379C123.777 149.113 123.406 149.727 122.922 150.219C122.625 150.523 122.297 150.805 121.938 151.062C121.586 151.32 121.195 151.539 120.766 151.719C120.336 151.898 119.867 152.039 119.359 152.141C118.859 152.242 118.297 152.293 117.672 152.293H115.375V158H110.992V140.551H117.766C118.773 140.551 119.641 140.645 120.367 140.832C121.102 141.012 121.766 141.301 122.359 141.699C123.016 142.137 123.523 142.723 123.883 143.457C124.242 144.184 124.422 145.051 124.422 146.059ZM119.922 146.164C119.922 145.672 119.805 145.25 119.57 144.898C119.336 144.539 119.055 144.293 118.727 144.16C118.312 143.98 117.914 143.879 117.531 143.855C117.156 143.824 116.645 143.809 115.996 143.809H115.375V149.035H115.68C116.094 149.035 116.484 149.031 116.852 149.023C117.219 149.016 117.539 148.988 117.812 148.941C118.047 148.902 118.293 148.828 118.551 148.719C118.816 148.602 119.02 148.473 119.16 148.332C119.457 148.043 119.656 147.742 119.758 147.43C119.867 147.117 119.922 146.695 119.922 146.164ZM133.785 154.566V151.824C133.09 151.895 132.527 151.957 132.098 152.012C131.668 152.059 131.246 152.156 130.832 152.305C130.473 152.43 130.191 152.621 129.988 152.879C129.793 153.129 129.695 153.465 129.695 153.887C129.695 154.504 129.859 154.93 130.188 155.164C130.523 155.391 131.016 155.504 131.664 155.504C132.023 155.504 132.391 155.422 132.766 155.258C133.141 155.094 133.48 154.863 133.785 154.566ZM133.785 156.605C133.504 156.84 133.25 157.051 133.023 157.238C132.805 157.426 132.508 157.613 132.133 157.801C131.766 157.98 131.406 158.117 131.055 158.211C130.711 158.305 130.227 158.352 129.602 158.352C128.438 158.352 127.469 157.961 126.695 157.18C125.93 156.398 125.547 155.414 125.547 154.227C125.547 153.25 125.742 152.461 126.133 151.859C126.523 151.258 127.086 150.781 127.82 150.43C128.562 150.07 129.449 149.82 130.48 149.68C131.512 149.539 132.621 149.43 133.809 149.352V149.281C133.809 148.555 133.539 148.055 133 147.781C132.469 147.5 131.668 147.359 130.598 147.359C130.113 147.359 129.547 147.449 128.898 147.629C128.25 147.801 127.617 148.023 127 148.297H126.648V145.121C127.055 145.004 127.711 144.867 128.617 144.711C129.523 144.547 130.438 144.465 131.359 144.465C133.625 144.465 135.273 144.844 136.305 145.602C137.344 146.352 137.863 147.5 137.863 149.047V158H133.785V156.605ZM149.734 148.719H149.395C149.238 148.664 149.012 148.625 148.715 148.602C148.418 148.57 148.09 148.555 147.73 148.555C147.301 148.555 146.848 148.617 146.371 148.742C145.902 148.867 145.445 149.016 145 149.188V158H140.898V144.84H145V146.727C145.188 146.555 145.445 146.34 145.773 146.082C146.109 145.816 146.414 145.605 146.688 145.449C146.984 145.27 147.328 145.117 147.719 144.992C148.117 144.859 148.492 144.793 148.844 144.793C148.977 144.793 149.125 144.797 149.289 144.805C149.453 144.812 149.602 144.824 149.734 144.84V148.719ZM156.344 158.258C154.672 158.258 153.453 157.914 152.688 157.227C151.93 156.539 151.551 155.414 151.551 153.852V147.699H149.98V144.84H151.551V141.078H155.652V144.84H159.602V147.699H155.652V152.363C155.652 152.824 155.656 153.227 155.664 153.57C155.672 153.914 155.734 154.223 155.852 154.496C155.961 154.77 156.152 154.988 156.426 155.152C156.707 155.309 157.113 155.387 157.645 155.387C157.863 155.387 158.148 155.34 158.5 155.246C158.859 155.152 159.109 155.066 159.25 154.988H159.602V157.883C159.156 158 158.684 158.09 158.184 158.152C157.684 158.223 157.07 158.258 156.344 158.258ZM173.57 144.84L166.926 162.828H162.52L164.512 157.684L159.684 144.84H163.996L166.762 153.09L169.352 144.84H173.57Z" fill="black"/>
<g clip-path="url(#clip0_19_28)">
<path d="M66.0001 40C66.0001 35.7565 67.6858 31.6869 70.6863 28.6863C73.6869 25.6857 77.7566 24 82.0001 24H114C118.244 24 122.313 25.6857 125.314 28.6863C128.314 31.6869 130 35.7565 130 40V104C130 108.243 128.314 112.313 125.314 115.314C122.313 118.314 118.244 120 114 120H82.0001C77.7566 120 73.6869 118.314 70.6863 115.314C67.6858 112.313 66.0001 108.243 66.0001 104V40ZM106 96C106 93.8783 105.157 91.8434 103.657 90.3431C102.157 88.8429 100.122 88 98.0001 88C95.8783 88 93.8435 88.8429 92.3432 90.3431C90.8429 91.8434 90.0001 93.8783 90.0001 96C90.0001 98.1217 90.8429 100.157 92.3432 101.657C93.8435 103.157 95.8783 104 98.0001 104C100.122 104 102.157 103.157 103.657 101.657C105.157 100.157 106 98.1217 106 96ZM48.4561 45.872C48.9525 44.9342 49.0561 43.8376 48.7441 42.8234C48.432 41.8092 47.7299 40.9605 46.7921 40.464C45.8542 39.9675 44.7576 39.8639 43.7434 40.176C42.7292 40.488 41.8805 41.1902 41.3841 42.128C36.5199 51.3328 33.9847 61.589 34.0001 72C34.0001 82.776 36.6721 92.944 41.3841 101.872C41.6299 102.336 41.9648 102.748 42.3696 103.083C42.7744 103.418 43.2412 103.67 43.7434 103.824C44.2456 103.979 44.7733 104.033 45.2964 103.983C45.8195 103.934 46.3277 103.782 46.7921 103.536C47.2564 103.29 47.6678 102.955 48.0027 102.55C48.3377 102.146 48.5896 101.679 48.7441 101.177C48.8986 100.674 48.9527 100.147 48.9033 99.6237C48.8539 99.1006 48.7019 98.5924 48.4561 98.128C44.202 90.0768 41.9854 81.1059 42.0001 72C42.0001 62.56 44.3361 53.664 48.4561 45.872ZM154.616 42.128C154.12 41.1902 153.271 40.488 152.257 40.176C151.242 39.8639 150.146 39.9675 149.208 40.464C148.27 40.9605 147.568 41.8092 147.256 42.8234C146.944 43.8376 147.048 44.9342 147.544 45.872C151.664 53.664 154 62.552 154 72C154 81.44 151.664 90.336 147.544 98.128C147.048 99.0658 146.944 100.162 147.256 101.177C147.568 102.191 148.27 103.04 149.208 103.536C150.146 104.032 151.242 104.136 152.257 103.824C153.271 103.512 154.12 102.81 154.616 101.872C159.48 92.6672 162.015 82.411 162 72C162.015 61.589 159.48 51.3328 154.616 42.128V42.128ZM60.7201 57.456C60.9433 56.9616 61.0636 56.4269 61.0738 55.8846C61.0839 55.3422 60.9836 54.8034 60.7789 54.301C60.5743 53.7986 60.2696 53.3431 59.8834 52.9621C59.4972 52.5812 59.0375 52.2828 58.5323 52.0851C58.0272 51.8874 57.4871 51.7945 56.9449 51.812C56.4027 51.8296 55.8698 51.9573 55.3785 52.1873C54.8872 52.4173 54.4478 52.7448 54.087 53.15C53.7263 53.5551 53.4517 54.0294 53.2801 54.544C51.1078 60.1072 49.9953 66.0277 50.0001 72C50.0001 78.152 51.1601 84.04 53.2801 89.456C53.4517 89.9706 53.7263 90.4449 54.087 90.85C54.4478 91.2552 54.8872 91.5827 55.3785 91.8127C55.8698 92.0427 56.4027 92.1704 56.9449 92.188C57.4871 92.2056 58.0272 92.1127 58.5323 91.9149C59.0375 91.7172 59.4972 91.4188 59.8834 91.0379C60.2696 90.6569 60.5743 90.2014 60.7789 89.699C60.9836 89.1966 61.0839 88.6578 61.0738 88.1154C61.0636 87.5731 60.9433 87.0384 60.7201 86.544C58.9143 81.9081 57.9918 76.9752 58.0001 72C58.0001 66.864 58.9601 61.96 60.7201 57.456ZM142.72 54.544C142.298 53.6093 141.533 52.8725 140.583 52.4856C139.634 52.0987 138.572 52.0914 137.617 52.4652C136.662 52.839 135.887 53.5653 135.452 54.4941C135.017 55.4229 134.955 56.4832 135.28 57.456C137.04 61.96 138 66.864 138 72C138 77.136 137.04 82.04 135.28 86.544C134.955 87.5168 135.017 88.5771 135.452 89.5059C135.887 90.4347 136.662 91.161 137.617 91.5348C138.572 91.9086 139.634 91.9013 140.583 91.5144C141.533 91.1275 142.298 90.3907 142.72 89.456C144.848 84.04 146 78.152 146 72C146 65.848 144.84 59.96 142.72 54.544V54.544Z" fill="#333333"/>
</g>
<defs>
<clipPath id="clip0_19_28">
<rect width="128" height="128" fill="white" transform="translate(34 8)"/>
</clipPath>
</defs>
</svg>
