<svg width="108" height="108" viewBox="0 0 108 108" fill="none" xmlns="http://www.w3.org/2000/svg">
<rect width="108" height="108" fill="white"/>
<path d="M9.98156 102.921C14.5041 100.575 21.0262 95.9766 29.6494 88.8638L19.44 78.7388C12.4116 87.2775 7.81312 93.7997 5.4675 98.4066C7.97344 98.4825 9.89719 100.491 9.98156 102.921Z" fill="#BDBDBD"/>
<path d="M4.11751 104.254C4.78407 104.92 6.29439 104.676 8.55564 103.587C8.97751 103.418 9.47532 103.165 9.8972 102.921C9.86 101.733 9.37159 100.604 8.53138 99.7639C7.69118 98.9237 6.56235 98.4353 5.3747 98.3981C5.12157 98.9044 4.86845 99.3178 4.70814 99.7397C3.70407 102.001 3.53532 103.587 4.11751 104.254V104.254Z" fill="#616161"/>
<path d="M10.049 95.7741C9.91404 95.8922 9.7706 96.0103 9.62716 96.1369C9.3656 96.3562 9.05341 96.5925 8.71591 96.5081C8.86779 95.8922 9.19685 95.3353 9.51747 94.7869C11.8631 90.8212 13.5759 87.7922 16.9678 84.6112C17.1956 84.4003 17.4487 84.1809 17.7525 84.1303C18.2503 84.0544 18.689 84.4594 18.959 84.8728C19.2375 85.2947 19.6847 86.0962 19.6087 86.6278C19.5328 87.1931 18.9084 87.5306 18.4865 87.9103C15.4068 90.6862 13.2047 93.0487 10.049 95.7741V95.7741Z" fill="#EEEEEE"/>
<path d="M91.0153 6.56436C90.1631 5.81343 88.6528 4.43811 88.6528 4.43811C87.8006 3.68718 86.6869 3.31593 85.5225 3.38343C84.3581 3.45936 83.3034 3.96561 82.5694 4.79249C79.2028 8.08311 75.8278 11.3737 72.4613 14.6644C67.8713 19.1531 56.7422 30.0628 55.9997 30.9909C55.2572 31.9275 55.755 32.4506 55.8394 32.5434C56.9531 33.7669 58.9528 33.9356 60.4125 33.1425C61.8638 32.3494 62.7834 30.7715 63.0534 29.1347C63.2306 28.0715 63.2981 27.54 64.0828 26.8481C64.3697 26.595 80.3588 11.6691 82.8056 8.88468C83.2106 8.42061 84.4256 7.4503 85.7588 8.47124C85.9697 8.63155 90.5934 12.5297 90.5934 12.5297L93.5381 9.18843L93.5297 8.99436C93.5128 8.76655 93.5128 8.76655 91.0153 6.56436V6.56436Z" fill="#BDBDBD"/>
<path d="M61.9312 46.4062L55.485 39.96C29.2106 66.5803 19.9715 76.7981 17.7019 79.7259C17.3053 80.2406 17.3475 80.9662 17.8115 81.4303L26.9831 90.2728C27.4472 90.7369 28.1728 90.7791 28.6875 90.3825C31.6153 88.1128 41.85 79.2197 68.4619 52.9453C68.3775 52.8525 61.9312 46.4062 61.9312 46.4062V46.4062Z" fill="#1565C0"/>
<path d="M88.5178 8.83405C87.9947 8.02405 86.7206 6.87655 85.8431 6.47999C84.8391 6.0328 84.0966 6.47155 83.4553 7.03686C82.3247 8.03249 74.8069 15.8372 73.1616 17.8875C72.976 18.1237 72.7819 18.3853 72.7819 18.6806C77.0766 14.6053 81.4472 10.5806 82.8394 9.37405C83.9025 8.45436 84.9319 7.63593 85.7672 8.47124C85.8516 8.55561 86.4338 9.01968 87.4885 9.90561L88.5178 8.83405Z" fill="#757575"/>
<path d="M103.874 14.3437C104.912 12.8503 103.452 9.56812 101.115 7.30687C98.7694 5.04562 95.5716 3.47624 94.0781 4.5478C92.5931 5.61937 74.3175 18.36 53.2237 40.4662C52.6416 41.1328 52.6416 42.1369 53.2237 42.7275L65.7787 55.2825C66.3609 55.8647 67.3734 55.949 68.04 55.2825C90.0619 34.1044 102.845 15.8372 103.874 14.3437V14.3437Z" fill="#1565C0"/>
<path d="M24.7725 79.3462C23.8359 80.0803 21.06 81.3966 23.1947 78.0553C23.7009 77.2706 25.4137 75.1528 26.1394 74.3006C28.9322 70.9931 44.9297 54.8184 47.7731 51.8316C50.085 49.4016 52.1269 48.8109 52.7934 50.4984C53.2491 51.6628 52.3041 53.0128 47.3766 58.2609C43.2759 62.6147 29.6241 75.5072 24.7725 79.3462Z" fill="#2196F3"/>
<path d="M70.6472 34.5516C70.6472 34.5516 67.6856 38.1291 65.5341 36.315C63.8297 34.8722 67.7784 31.455 67.7784 31.455C67.8797 31.3453 81.4219 18.6216 85.4466 15.39C87.1003 14.0569 89.2097 12.5719 89.7919 13.0866C90.3741 13.6013 89.4122 15.2381 86.8725 17.761C84.3244 20.2838 70.74 34.4503 70.6472 34.5516Z" fill="#2196F3"/>
<path d="M61.0284 27.4219C60.3703 27.8522 60.6319 29.8181 60.2269 30.8222C59.8978 31.6238 59.9062 32.0456 60.5812 31.8431C61.2984 31.6238 62.1 30.5438 62.1 28.8647C62.0916 28.0463 61.7119 26.9663 61.0284 27.4219Z" fill="#EEEEEE"/>
<path d="M87.7922 9.21376L87.0328 9.80439C88.8047 10.8928 91.0406 12.5719 93.3441 14.8753C94.365 15.8963 95.7741 17.5247 96.2634 18.5119C96.7191 19.4484 96.8878 20.8828 96.4997 22.2244C96.0778 23.6841 95.4112 24.3422 95.1412 25.8272C96.4828 24.165 99.1912 20.6972 99.1912 20.6972C99.1912 20.6972 98.0184 17.685 94.0106 13.6688C90.0028 9.65251 87.7922 9.21376 87.7922 9.21376V9.21376Z" fill="#0D47A1"/>
<path d="M101.115 7.30687C99.3009 5.56031 96.9806 4.22719 95.3353 4.20187C95.3353 4.20187 98.2969 5.78812 100.001 8.00719C101.807 10.3528 102.98 12.4875 102.17 13.8291C100.82 15.7697 88.8553 32.7544 67.7616 53.1984C67.6757 53.2824 67.5724 53.3463 67.4589 53.3856C67.3455 53.4249 67.2247 53.4386 67.1053 53.4257C66.9859 53.4128 66.8709 53.3736 66.7685 53.311C66.666 53.2483 66.5787 53.1638 66.5128 53.0634C65.3147 51.2156 63.7116 49.2666 61.3153 46.8787C57.8897 43.4531 55.6791 41.9091 53.1056 40.6097C53.1056 40.6097 52.515 40.9219 52.3631 41.9597C52.2619 42.6262 52.3209 43.1662 52.3209 43.1662L53.0466 42.4997C55.0631 43.6303 57.5184 45.4528 60.1341 48.0769C61.2562 49.1991 62.2687 50.3297 63.1462 51.4181C63.2644 51.6375 64.1419 53.4937 62.3447 56.3709C62.3447 56.3709 62.0747 56.7169 61.6697 57.2569C40.5506 77.9709 30.7294 86.805 28.7972 88.1212C26.7722 89.4966 25.7006 89.0325 25.7006 89.0325C25.9537 89.2856 26.5106 89.91 27.135 90.3994C27.7678 90.8972 28.4512 90.5597 28.6791 90.3741C31.1259 88.4756 38.6691 81.9619 56.5819 64.5722C56.6072 64.5469 56.6325 64.53 56.6494 64.5047C59.2819 61.9481 62.1422 59.1553 65.2387 56.1094C65.2556 56.1094 65.7872 56.1684 66.4453 56.0672C67.4747 55.9153 67.8628 55.4344 67.8628 55.4344V55.4259C67.9219 55.3837 67.9809 55.3331 68.04 55.2825C90.0619 34.1044 102.836 15.8372 103.874 14.3437C104.912 12.8503 103.461 9.56812 101.115 7.30687V7.30687Z" fill="#0D47A1"/>
<path d="M65.0363 43.1747C62.4459 40.5844 59.4338 38.2134 56.7422 36.8381C56.7422 36.8381 56.0756 36.7959 55.4513 37.4878C54.9788 38.0109 54.8691 38.7534 54.8691 38.7534C56.9109 39.6563 59.8978 41.5884 63.2644 44.9466C65.7956 47.4778 67.8544 50.1441 69.0609 52.4728C69.3056 52.9453 69.4913 53.3588 69.6347 53.7384C69.6347 53.7384 70.3772 53.7469 71.0016 53.2069C71.7019 52.5909 71.5584 51.8484 71.5584 51.8484C70.2253 49.0556 67.7531 45.8916 65.0363 43.1747V43.1747Z" fill="#FFC107"/>
<path d="M97.1578 11.0616C95.4113 9.31502 93.4706 7.67814 91.5722 6.37033C91.5722 6.37033 90.2728 5.87252 89.0831 6.96939C87.8934 8.06627 87.8006 9.22221 87.8006 9.22221C89.5725 10.3106 91.6903 11.9306 93.9938 14.2341C96.1453 16.3856 97.9509 18.6469 99.1913 20.7056C99.1913 20.7056 100.508 20.6044 101.436 19.4991C102.364 18.3938 102.035 16.9256 102.035 16.9256C100.702 14.926 98.9888 12.8925 97.1578 11.0616V11.0616Z" fill="#BDBDBD"/>
<path d="M90.4416 7.39967C89.9944 7.49248 89.5725 7.83842 89.5472 8.29405C89.5219 8.75811 89.8931 9.12936 90.2391 9.44155C91.3191 10.4203 92.4412 11.4159 93.825 11.88C94.1287 11.9812 94.5253 12.0403 94.7362 11.7956C94.8712 11.6437 94.8797 11.4159 94.8628 11.2134C94.7953 10.3781 94.3734 9.6103 93.825 8.97748C92.9644 7.99873 91.8338 7.1128 90.4416 7.39967V7.39967Z" fill="#EEEEEE"/>
</svg>
